<svg width="613" height="568" viewBox="0 0 613 568" fill="none" xmlns="http://www.w3.org/2000/svg">
<g filter="url(#filter0_d_23_46)">
<path d="M547.025 110.387C534.603 108.57 530.781 108.046 525.171 107.441C467.368 101.116 411.699 109.145 356.994 131.68C336.901 139.975 321.664 147.7 299.134 161.106C276.746 174.397 261.566 184.551 239.203 201.282L232.588 206.231L230.821 205.478C221.529 201.442 209.306 197.375 197.741 194.418C176.131 188.894 163.099 188.581 149.809 193.257C128.844 200.688 105.417 219.372 81.2521 248.017C67.6322 264.154 52.5444 284.706 39.3516 305.215C36.8152 309.094 36.4837 309.801 36.1536 311.829C35.4744 316.108 37.0712 320.326 40.3149 322.966C41.4433 323.858 42.3883 324.289 44.767 324.859C47.7116 325.574 48.1278 325.567 65.1189 324.1C74.6776 323.262 86.8939 322.197 92.2799 321.763C97.6749 321.293 106.56 320.584 112.035 320.097L122.001 319.287L151.493 367.232C167.735 393.605 180.957 415.433 180.884 415.716C180.847 416.009 172.626 429.45 162.698 445.588C142.799 477.888 142.799 477.888 143.228 481.959C143.574 484.877 145.063 487.748 147.258 489.629C148.773 490.922 149.445 491.245 151.859 491.824C154.98 492.584 155.822 492.535 174.066 490.144C219.319 484.244 254.487 475.201 279.799 462.996C289.983 458.092 301.652 450.323 308.311 444.027C314.808 437.916 319.579 430.307 323.668 419.619C328.548 406.719 333.207 382.596 334.128 365.288L334.277 362.346L335.982 361.423C336.897 360.94 341.354 358.684 345.856 356.402C414.93 321.581 464.184 284.259 499.824 239.76C525.282 207.974 543.796 173.132 557.266 131.642C559.599 124.429 559.857 122.684 559.113 119.551C557.832 114.394 553.926 111.396 547.025 110.387Z" fill="#FF7D25"/>
</g>
<defs>
<filter id="filter0_d_23_46" x="35.9994" y="105.353" width="576.485" height="394.906" filterUnits="userSpaceOnUse" color-interpolation-filters="sRGB">
<feFlood flood-opacity="0" result="BackgroundImageFix"/>
<feColorMatrix in="SourceAlpha" type="matrix" values="0 0 0 0 0 0 0 0 0 0 0 0 0 0 0 0 0 0 127 0" result="hardAlpha"/>
<feOffset dx="49" dy="4"/>
<feGaussianBlur stdDeviation="2"/>
<feComposite in2="hardAlpha" operator="out"/>
<feColorMatrix type="matrix" values="0 0 0 0 0 0 0 0 0 0 0 0 0 0 0 0 0 0 0.75 0"/>
<feBlend mode="normal" in2="BackgroundImageFix" result="effect1_dropShadow_23_46"/>
<feBlend mode="normal" in="SourceGraphic" in2="effect1_dropShadow_23_46" result="shape"/>
</filter>
</defs>
</svg>